<?xml version="1.0" standalone="no"?><!DOCTYPE svg PUBLIC "-//W3C//DTD SVG 1.1//EN" "http://www.w3.org/Graphics/SVG/1.1/DTD/svg11.dtd"><svg t="1528463827632" class="icon" style="" viewBox="0 0 1077 1024" version="1.1" xmlns="http://www.w3.org/2000/svg" p-id="3300" xmlns:xlink="http://www.w3.org/1999/xlink" width="63.10546875" height="60"><defs><style type="text/css"></style></defs><path d="M256.687508 1023.517869a84.305551 84.305551 0 0 1-48.482426-15.622115 80.804042 80.804042 0 0 1-32.321617-80.804042l51.983934-269.346808L26.934681 469.740833a80.804042 80.804042 0 0 1-22.086438-84.844245 80.804042 80.804042 0 0 1 68.144742-55.754789L346.649341 296.281488l117.435209-248.068409a82.68947 82.68947 0 0 1 149.218131 0L730.737889 296.281488l274.464397 34.207045A80.804042 80.804042 0 0 1 1050.45255 469.740833l-201.740759 188.542765 51.983934 269.346808a80.804042 80.804042 0 0 1-32.321617 80.804042 83.228164 83.228164 0 0 1-88.345753 5.386936l-242.412127-132.249282-242.412127 132.249282a85.113591 85.113591 0 0 1-38.516593 9.696485z m257.226201-953.487699l-130.363855 275.272437-304.361893 37.9779A26.934681 26.934681 0 0 0 63.835193 430.954892l223.557851 207.935736-57.640217 297.628222a26.934681 26.934681 0 0 0 10.773872 26.934681 26.934681 26.934681 0 0 0 29.358802 1.885428L538.693615 818.814295l269.346808 146.794011a26.934681 26.934681 0 0 0 29.358802-1.885428 26.934681 26.934681 0 0 0 10.773872-26.934681l-58.17891-298.70561 223.55785-207.127695a26.934681 26.934681 0 0 0-15.352768-46.866344l-304.092546-38.785941L563.473522 70.03017a26.934681 26.934681 0 0 0-49.559813 0z" fill="#BFBFBF" p-id="3301"></path></svg>